<svg width="195" height="100" viewBox="0 0 195 100" fill="none" xmlns="http://www.w3.org/2000/svg">
<g clip-path="url(#clip0_100_38)">
<path d="M4.65278 52.5498L2 48.8397V99.1425H193V1.85742L190.347 4.87863C187.694 7.89983 182.389 13.9422 177.083 19.1805C171.778 24.4187 166.472 28.8527 161.167 33.5698C155.861 38.287 150.556 43.2873 145.25 39.9246C139.944 36.5619 134.639 24.8361 129.333 26.4194C124.028 28.0028 118.722 42.8953 113.417 46.3143C108.111 49.7333 102.806 41.6789 97.5 43.6178C92.1944 45.5568 86.8889 57.4891 81.5833 55.3842C76.2778 53.2793 70.9722 37.1373 65.6667 34.8617C60.3611 32.586 55.0556 44.1769 49.75 53.911C44.4444 63.6451 39.1389 71.5224 33.8333 74.0778C28.5278 76.6332 23.2222 73.8666 17.9167 68.7732C12.6111 63.6799 7.30556 56.2599 4.65278 52.5498Z" fill="url(#paint0_linear_100_38)"/>
<g filter="url(#filter0_i_100_38)">
<path d="M2 48.8397L4.65278 52.5498C7.30556 56.2598 12.6111 63.6799 17.9167 68.7732C23.2222 73.8666 28.5278 76.6332 33.8333 74.0778C39.1389 71.5224 44.4444 63.6451 49.75 53.911C55.0556 44.1769 60.3611 32.586 65.6667 34.8617C70.9722 37.1373 76.2778 53.2793 81.5833 55.3842C86.8889 57.4891 92.1944 45.5568 97.5 43.6178C102.806 41.6789 108.111 49.7333 113.417 46.3143C118.722 42.8953 124.028 28.0028 129.333 26.4194C134.639 24.8361 139.944 36.5619 145.25 39.9246C150.556 43.2873 155.861 38.287 161.167 33.5698C166.472 28.8527 171.778 24.4187 177.083 19.1805C182.389 13.9422 187.694 7.89983 190.347 4.87863L193 1.85742" stroke="#F83232" stroke-width="3.57009"/>
</g>
</g>
<defs>
<filter id="filter0_i_100_38" x="0.547852" y="0.679688" width="222.354" height="83.2984" filterUnits="userSpaceOnUse" color-interpolation-filters="sRGB">
<feFlood flood-opacity="0" result="BackgroundImageFix"/>
<feBlend mode="normal" in="SourceGraphic" in2="BackgroundImageFix" result="shape"/>
<feColorMatrix in="SourceAlpha" type="matrix" values="0 0 0 0 0 0 0 0 0 0 0 0 0 0 0 0 0 0 127 0" result="hardAlpha"/>
<feOffset dx="28.5607" dy="7.14019"/>
<feGaussianBlur stdDeviation="24.9907"/>
<feComposite in2="hardAlpha" operator="arithmetic" k2="-1" k3="1"/>
<feColorMatrix type="matrix" values="0 0 0 0 0 0 0 0 0 0 0 0 0 0 0 0 0 0 0.25 0"/>
<feBlend mode="normal" in2="shape" result="effect1_innerShadow_100_38"/>
</filter>
<linearGradient id="paint0_linear_100_38" x1="97.5" y1="1.85742" x2="98.0932" y2="108.628" gradientUnits="userSpaceOnUse">
<stop offset="0.207713" stop-color="#F83232" stop-opacity="0.3"/>
<stop offset="1" stop-color="#1F242A" stop-opacity="0"/>
</linearGradient>
<clipPath id="clip0_100_38">
<rect width="195" height="100" fill="white"/>
</clipPath>
</defs>
</svg>
