<svg width="24" height="24" viewBox="0 0 24 24" fill="none" xmlns="http://www.w3.org/2000/svg">
<path d="M19.5679 12.9375C19.3706 12.9004 19.1743 12.8574 18.979 12.8106C18.5686 12.7099 18.1646 12.585 17.769 12.4366C16.818 12.0771 15.7481 12.483 15.2749 13.3829L14.5238 14.8252C13.414 14.1952 12.3946 13.4176 11.4936 12.5137C10.5925 11.6093 9.81755 10.5874 9.18986 9.47563L10.6235 8.72954C11.5233 8.25621 11.9294 7.18657 11.5703 6.2354C11.4214 5.83922 11.2964 5.43455 11.1958 5.02348C11.1481 4.82847 11.1059 4.63188 11.0693 4.43364C10.7982 3.01542 9.55418 1.99229 8.11033 2.00004H5.03465C4.14897 1.99998 3.30742 2.38664 2.73045 3.05864C2.15873 3.72087 1.90446 4.59965 2.03416 5.46489C3.36583 13.9671 10.0323 20.6382 18.5337 21.9756C18.6817 21.9982 18.8312 22.0096 18.9809 22.0098C19.7005 22.009 20.3959 21.7502 20.9409 21.2803C21.6135 20.7031 22.0005 19.8609 22.0005 18.9747V15.8965C22.0087 14.4528 20.9859 13.2087 19.5679 12.9375ZM21.0005 18.9747C21.0002 19.5694 20.7402 20.1344 20.2886 20.5215C19.8468 20.9025 19.2612 21.0726 18.6841 20.9873C10.6151 19.718 4.28746 13.3863 3.02342 5.31645C2.93681 4.73906 3.10679 4.15257 3.48875 3.71098C3.87553 3.25963 4.44029 2.99992 5.03465 3.00004H8.11033C9.072 2.99229 9.90245 3.67125 10.086 4.61528C10.1255 4.8311 10.1724 5.04692 10.2242 5.26079C10.3346 5.71055 10.4715 6.15336 10.6343 6.58696C10.816 7.06499 10.6131 7.6035 10.1612 7.84282L8.27739 8.82329C8.03264 8.95067 7.93736 9.25224 8.0645 9.49711C8.77623 10.8693 9.69389 12.1244 10.7856 13.2188C11.8768 14.3143 13.1297 15.2358 14.5005 15.9512C14.6186 16.0113 14.7555 16.0232 14.8822 15.9844C15.0086 15.9448 15.1139 15.8566 15.1753 15.7393L16.1616 13.8448C16.401 13.3935 16.9388 13.1909 17.4165 13.3721C17.8496 13.5351 18.2921 13.6717 18.7417 13.7813C18.9536 13.834 19.1675 13.879 19.3843 13.92C20.3288 14.1034 21.0082 14.9344 21.0005 15.8965V18.9747Z" fill="#CACACA"/>
</svg>
