<svg width="24" height="24" viewBox="0 0 24 24" fill="none" xmlns="http://www.w3.org/2000/svg">
<path d="M20.8598 3.87646H3.1416C2.52022 3.87717 1.92449 4.12433 1.4851 4.56371C1.04572 5.0031 0.798559 5.59883 0.797852 6.22021V17.7796C0.798559 18.401 1.04572 18.9967 1.4851 19.4361C1.92449 19.8755 2.52022 20.1226 3.1416 20.1233H20.8598C21.4812 20.1226 22.0769 19.8755 22.5163 19.4361C22.9557 18.9967 23.2028 18.401 23.2035 17.7796V6.22021C23.2029 5.59883 22.9557 5.00309 22.5163 4.5637C22.077 4.12431 21.4812 3.87716 20.8598 3.87646ZM16.6926 11.9967L22.2661 7.62243V17.407L16.6926 11.9967ZM3.1416 4.81396H20.8598C21.2326 4.81439 21.5901 4.96268 21.8537 5.22631C22.1173 5.48994 22.2656 5.84738 22.266 6.22021V6.43068L13.2468 13.5097C12.9171 13.7671 12.5106 13.9068 12.0923 13.9064C11.674 13.9061 11.2678 13.7657 10.9384 13.5078L1.73535 6.4289V6.22021C1.73577 5.84738 1.88407 5.48994 2.1477 5.22631C2.41133 4.96268 2.76877 4.81439 3.1416 4.81396ZM7.47463 12.0262L1.73535 17.4259V7.61165L7.47463 12.0262ZM20.8598 19.1858H3.1416C2.90153 19.1857 2.66548 19.1241 2.45594 19.0069C2.2464 18.8898 2.07033 18.7209 1.94451 18.5165L8.22735 12.6055L10.364 14.249C10.8581 14.6349 11.4672 14.8445 12.0942 14.8444C12.7212 14.8442 13.3302 14.6343 13.8241 14.2481L15.9485 12.5812L22.0593 18.5127C21.9337 18.7182 21.7575 18.888 21.5475 19.0059C21.3374 19.1237 21.1007 19.1857 20.8598 19.1858Z" fill="#ADADAD"/>
</svg>
