<svg width="24" height="24" viewBox="0 0 24 24" fill="none" xmlns="http://www.w3.org/2000/svg">
<path d="M18.8863 23.2495C19.8043 23.2495 20.5553 22.4995 20.5553 21.5815V12.0955C20.554 11.6533 20.3777 11.2297 20.065 10.9171C19.7522 10.6046 19.3285 10.4285 18.8863 10.4275H5.11334C4.67119 10.4285 4.24743 10.6046 3.93469 10.9171C3.62195 11.2297 3.44566 11.6533 3.44434 12.0955V21.5815C3.44566 22.0236 3.62195 22.4473 3.93469 22.7598C4.24743 23.0724 4.67119 23.2484 5.11334 23.2495H18.8863ZM18.8863 22.4995H5.11334C4.99235 22.5009 4.87229 22.4781 4.76023 22.4325C4.64816 22.3869 4.54633 22.3193 4.46073 22.2338C4.37512 22.1483 4.30746 22.0465 4.26172 21.9345C4.21597 21.8225 4.19306 21.7025 4.19434 21.5815V12.0955C4.19434 11.5805 4.59784 11.1775 5.11334 11.1775H18.8863C19.4018 11.1775 19.8053 11.58 19.8053 12.0955V21.5815C19.8053 22.097 19.4018 22.4995 18.8863 22.4995Z" fill="#ADADAD"/>
<path d="M11.7352 0.749512C11.6907 0.750548 11.6466 0.759511 11.6052 0.776001C8.47072 0.849001 5.94922 3.38101 5.94922 6.53101V10.5605C5.94922 10.66 5.98873 10.7553 6.05905 10.8257C6.12938 10.896 6.22476 10.9355 6.32422 10.9355C6.42367 10.9355 6.51906 10.896 6.58938 10.8257C6.65971 10.7553 6.69922 10.66 6.69922 10.5605V6.53101C6.6971 5.86927 6.82597 5.21366 7.0784 4.60196C7.33082 3.99026 7.70181 3.43455 8.16999 2.96689C8.63817 2.49922 9.19427 2.12883 9.80625 1.87708C10.4182 1.62532 11.074 1.49716 11.7357 1.5H12.2647C12.9265 1.49716 13.5822 1.62532 14.1942 1.87708C14.8062 2.12883 15.3623 2.49922 15.8304 2.96689C16.2986 3.43455 16.6696 3.99026 16.922 4.60196C17.1745 5.21366 17.3033 5.86927 17.3012 6.53101V10.692C17.3012 10.7914 17.3407 10.8869 17.4111 10.9572C17.4814 11.0275 17.5768 11.067 17.6762 11.067C17.7757 11.067 17.8711 11.0275 17.9414 10.9572C18.0117 10.8869 18.0512 10.7914 18.0512 10.692V6.53101C18.0512 3.33451 15.4637 0.749512 12.2647 0.749512H11.7357H11.7352ZM11.8177 2.2135C9.55272 2.2135 7.71422 4.03499 7.71422 6.28699V10.663C7.71422 10.7625 7.75373 10.8579 7.82405 10.9282C7.89438 10.9985 7.98976 11.038 8.08922 11.038C8.18867 11.038 8.28406 10.9985 8.35438 10.9282C8.42471 10.8579 8.46422 10.7625 8.46422 10.663V6.2865C8.46422 4.441 9.95122 2.9635 11.8177 2.9635H12.1827C14.0492 2.9635 15.5362 4.44099 15.5362 6.28699V10.682C15.5362 10.7814 15.5757 10.8768 15.6461 10.9472C15.7164 11.0175 15.8118 11.057 15.9112 11.057C16.0107 11.057 16.1061 11.0175 16.1764 10.9472C16.2467 10.8768 16.2862 10.7814 16.2862 10.682V6.28699C16.2862 4.03499 14.4482 2.2135 12.1827 2.2135H11.8177ZM12.0002 13.6815C11.527 13.6831 11.0737 13.8717 10.7391 14.2063C10.4045 14.5409 10.2158 14.9943 10.2142 15.4675C10.2142 16.0225 10.5107 16.5045 10.9407 16.8395V18.936C10.9407 19.5165 11.4192 19.997 12.0002 19.997C12.5812 19.997 13.0602 19.517 13.0602 18.936V16.8385C13.4897 16.5035 13.7857 16.022 13.7862 15.4675C13.7846 14.9943 13.596 14.5409 13.2614 14.2063C12.9268 13.8717 12.4734 13.6831 12.0002 13.6815ZM12.0002 14.4315C12.5767 14.4315 13.0362 14.891 13.0362 15.4675C13.0361 15.6521 12.9866 15.8333 12.8929 15.9923C12.7992 16.1514 12.6646 16.2824 12.5032 16.372C12.4446 16.4044 12.3958 16.4519 12.3617 16.5096C12.3277 16.5673 12.3097 16.633 12.3097 16.7V18.936C12.311 18.9771 12.3039 19.018 12.2889 19.0562C12.2738 19.0944 12.2511 19.1292 12.2221 19.1583C12.1931 19.1874 12.1585 19.2103 12.1203 19.2256C12.0822 19.2408 12.0413 19.2481 12.0002 19.247C11.9591 19.2482 11.9182 19.241 11.88 19.2257C11.8418 19.2105 11.8071 19.1876 11.778 19.1585C11.749 19.1293 11.7262 19.0946 11.7111 19.0563C11.696 19.018 11.6889 18.9771 11.6902 18.936V16.701C11.6903 16.634 11.6725 16.5682 11.6385 16.5104C11.6046 16.4526 11.5558 16.405 11.4972 16.3725C11.3357 16.283 11.2011 16.1518 11.1074 15.9926C11.0137 15.8335 10.9642 15.6522 10.9642 15.4675C10.9642 14.8905 11.4237 14.4315 12.0002 14.4315Z" fill="#ADADAD"/>
</svg>
