<?xml version="1.0" encoding="UTF-8"?>
<svg id="Layer_2" data-name="Layer 2" xmlns="http://www.w3.org/2000/svg" xmlns:xlink="http://www.w3.org/1999/xlink" viewBox="0 0 850.23 288.71">
  <defs>
    <style>
      .cls-1 {
        clip-path: url(#clippath);
      }

      .cls-2 {
        fill-rule: evenodd;
      }

      .cls-2, .cls-3, .cls-4 {
        fill: url(#linear-gradient);
      }

      .cls-3, .cls-5, .cls-6, .cls-7, .cls-8, .cls-9, .cls-10, .cls-11, .cls-4 {
        stroke-width: 0px;
      }

      .cls-12 {
        filter: url(#drop-shadow-1);
      }

      .cls-5 {
        fill: url(#linear-gradient-4);
      }

      .cls-6 {
        fill: url(#linear-gradient-2);
      }

      .cls-7 {
        fill: url(#linear-gradient-3);
      }

      .cls-8 {
        fill: url(#linear-gradient-7);
      }

      .cls-9 {
        fill: url(#linear-gradient-5);
      }

      .cls-10 {
        fill: url(#linear-gradient-6);
      }

      .cls-11 {
        fill: #fff;
      }

      .cls-4 {
        clip-rule: evenodd;
      }
    </style>
    <linearGradient id="linear-gradient" x1="529.43" y1="217.78" x2="850.23" y2="217.78" gradientUnits="userSpaceOnUse">
      <stop offset="0" stop-color="#f2f2f2"/>
      <stop offset="1" stop-color="#f2f2f2"/>
    </linearGradient>
    <clipPath id="clippath">
      <polygon class="cls-4" points="850.23 231.42 850.23 204.14 326.12 204.14 326.12 209.55 484.61 209.55 494.42 231.42 850.23 231.42"/>
    </clipPath>
    <linearGradient id="linear-gradient-2" x1="111.43" y1="282.9" x2="177.28" y2="5.81" gradientTransform="translate(144.36 -59.79) rotate(45)" xlink:href="#linear-gradient"/>
    <filter id="drop-shadow-1" filterUnits="userSpaceOnUse">
      <feOffset dx="15.26" dy="15.26"/>
      <feGaussianBlur result="blur" stdDeviation="10.9"/>
      <feFlood flood-color="#000" flood-opacity=".75"/>
      <feComposite in2="blur" operator="in"/>
      <feComposite in="SourceGraphic"/>
    </filter>
    <linearGradient id="linear-gradient-3" x1="62.25" y1="163.73" x2="110.11" y2="163.73" gradientUnits="userSpaceOnUse">
      <stop offset="0" stop-color="#2a4f96"/>
      <stop offset="1" stop-color="#333d70"/>
    </linearGradient>
    <linearGradient id="linear-gradient-4" x1="62.25" y1="146.22" x2="144.81" y2="146.22" xlink:href="#linear-gradient-3"/>
    <linearGradient id="linear-gradient-5" x1="178.66" y1="163.73" x2="226.46" y2="163.73" xlink:href="#linear-gradient-3"/>
    <linearGradient id="linear-gradient-6" x1="143.93" y1="146.22" x2="226.46" y2="146.22" xlink:href="#linear-gradient-3"/>
    <linearGradient id="linear-gradient-7" x1="496.25" y1="218.3" x2="844.6" y2="218.3" xlink:href="#linear-gradient-3"/>
  </defs>
  <g id="Layer_1-2" data-name="Layer 1">
    <g>
      <g>
        <polygon class="cls-2" points="850.23 231.42 850.23 204.14 326.12 204.14 326.12 209.55 484.61 209.55 494.42 231.42 850.23 231.42"/>
        <g class="cls-1">
          <rect class="cls-3" x="326.12" y="204.14" width="524.11" height="27.28"/>
        </g>
      </g>
      <rect class="cls-6" x="21.19" y="21.19" width="246.33" height="246.33" rx="72" ry="72" transform="translate(-59.79 144.36) rotate(-45)"/>
      <g class="cls-12">
        <path class="cls-7" d="M62.25,133.65c28.99,3.44,52.46,31.12,47.09,60.17-2.04-11.73-8.78-22.35-18.42-28.67-8.53-5.67-19.08-7.68-28.67-5.34,0,0,0-26.16,0-26.16h0Z"/>
        <path class="cls-5" d="M62.25,98.63c48.33,3.72,87.21,46.68,82.11,95.19-2.06-20.9-12.55-40.59-28.67-53.43-15.04-12.13-34.64-17.89-53.43-15.59,0,0,0-26.16,0-26.16h0Z"/>
        <path class="cls-9" d="M226.46,159.81c-9.59-2.35-20.13-.33-28.67,5.34-4.52,2.99-8.61,7.02-11.81,11.9-3.21,4.87-5.51,10.6-6.61,16.77-1.08-6.16-.96-12.76.57-19.27,4.8-21.52,24.47-38.11,46.52-40.89,0,0,0,26.16,0,26.16h0Z"/>
        <path class="cls-10" d="M226.46,124.79c-18.8-2.3-38.39,3.46-53.43,15.59-16.12,12.85-26.61,32.53-28.67,53.43-2.31-22.19,4.88-45.25,19.42-62.68,15.24-18.54,38.39-30.46,62.68-32.5,0,0,0,26.16,0,26.16h0Z"/>
      </g>
      <path class="cls-8" d="M843.36,224.78c-.26,0-.47-.08-.64-.24-.16-.16-.25-.37-.25-.63,0-.34.12-.63.37-.87.25-.24.54-.36.88-.36.26,0,.47.08.63.24.16.16.24.37.24.63,0,.34-.12.63-.37.87-.25.24-.54.37-.87.37M839.8,224.78c-.26,0-.47-.08-.64-.24-.16-.16-.25-.37-.25-.63,0-.34.12-.63.37-.87.25-.24.54-.36.88-.36.26,0,.47.08.63.24.16.16.24.37.24.63,0,.34-.12.63-.37.87-.25.24-.54.37-.87.37ZM836.24,224.78c-.26,0-.47-.08-.64-.24-.16-.16-.25-.37-.25-.63,0-.34.12-.63.37-.87.25-.24.54-.36.88-.36.26,0,.47.08.63.24.16.16.24.37.24.63,0,.34-.12.63-.37.87-.25.24-.54.37-.87.37ZM831.2,215.21c.93,0,1.67.26,2.24.77.57.51.85,1.26.85,2.23,0,.36-.03.69-.08.98l-.97,5.48h-1.53l.93-5.26c.05-.24.07-.49.07-.75,0-.69-.19-1.22-.57-1.58-.38-.36-.91-.54-1.59-.54-.81,0-1.51.25-2.08.76-.57.51-.94,1.25-1.11,2.22v-.03l-.92,5.18h-1.54l2.22-12.56h1.54l-.81,4.6c.38-.48.87-.85,1.47-1.11.59-.27,1.22-.4,1.88-.4ZM821.06,222.13c-.03.17-.05.32-.05.44,0,.28.09.49.26.61.18.12.46.19.86.19h1.14l-.24,1.31h-1.39c-.74,0-1.29-.14-1.65-.42-.37-.28-.55-.75-.55-1.39,0-.25.02-.49.07-.73l.97-5.48h-1.19l.22-1.27h1.2l.41-2.34h1.56l-.41,2.34h2.41l-.22,1.27h-2.43l-.97,5.48ZM818.84,215.38l-4.55,9.3h-1.6l-.92-7.4-3.56,7.4h-1.6l-1.27-9.3h1.58l.76,7.81,3.67-7.81h1.6l.88,7.76,3.48-7.76h1.53ZM798.22,223.52c.74,0,1.4-.2,1.99-.6.59-.4,1.05-.93,1.38-1.6.33-.66.5-1.37.5-2.13,0-.86-.25-1.52-.75-1.98-.5-.46-1.12-.69-1.87-.69s-1.39.2-1.97.6-1.02.94-1.34,1.6c-.32.67-.48,1.39-.48,2.16,0,.84.24,1.48.71,1.94.48.46,1.08.69,1.82.69ZM798.03,224.83c-.78,0-1.47-.16-2.06-.48-.59-.32-1.05-.78-1.38-1.36-.33-.58-.49-1.26-.49-2.03,0-1.05.24-2.02.73-2.89.49-.88,1.16-1.57,2.01-2.08.85-.51,1.81-.76,2.86-.76.78,0,1.47.16,2.08.48.61.32,1.07.77,1.41,1.36.33.58.5,1.26.5,2.05,0,1.05-.25,2.01-.75,2.89-.5.87-1.18,1.56-2.04,2.07-.86.51-1.82.76-2.87.76ZM790.5,217.14c.37-.61.84-1.09,1.41-1.43.57-.34,1.21-.51,1.94-.51l-.29,1.6h-.41c-.8,0-1.47.22-2.01.64-.54.43-.9,1.15-1.08,2.17l-.9,5.06h-1.54l1.65-9.3h1.54l-.31,1.76ZM774.89,218.75c.2-1.15.65-2.19,1.33-3.11.68-.92,1.52-1.64,2.52-2.16,1-.51,2.04-.77,3.14-.77,1.27,0,2.33.31,3.18.93.85.62,1.41,1.5,1.65,2.63h-1.85c-.2-.69-.59-1.22-1.15-1.6-.56-.38-1.25-.57-2.08-.57s-1.6.19-2.33.57c-.73.38-1.34.92-1.84,1.63-.5.71-.83,1.52-1,2.45-.06.29-.08.63-.08,1.02,0,1.11.33,1.99.98,2.64.66.65,1.53.98,2.63.98,1.16,0,2.18-.35,3.05-1.04.87-.7,1.47-1.64,1.8-2.83h-4.72l.22-1.22h6.36l-.22,1.19c-.26.97-.72,1.86-1.38,2.67-.66.81-1.46,1.45-2.39,1.92-.93.47-1.92.7-2.96.7-.97,0-1.84-.2-2.59-.6-.75-.4-1.34-.97-1.76-1.71-.42-.74-.63-1.58-.63-2.53,0-.38.03-.78.1-1.19ZM768.95,212.12l-2.22,12.56h-1.54l2.22-12.56h1.54ZM761.83,220.01c.05-.24.07-.49.07-.76,0-.83-.25-1.48-.74-1.96-.49-.48-1.12-.72-1.88-.72-.58,0-1.13.14-1.65.41-.53.27-.98.67-1.35,1.19-.37.52-.62,1.13-.75,1.83-.05.24-.07.5-.07.78,0,.84.24,1.5.73,1.98.49.48,1.11.72,1.87.72.58,0,1.13-.14,1.65-.42.53-.28.98-.68,1.36-1.2.38-.53.63-1.14.76-1.84ZM753.94,219.99c.17-.95.51-1.79,1.03-2.5.51-.72,1.14-1.28,1.88-1.67.74-.4,1.53-.59,2.37-.59s1.49.18,2.02.53c.53.35.9.79,1.1,1.32l.31-1.7h1.56l-1.65,9.3h-1.56l.32-1.73c-.41.54-.94.99-1.61,1.35-.67.36-1.4.53-2.21.53-.72,0-1.36-.16-1.92-.47-.55-.31-.98-.76-1.29-1.33-.31-.58-.46-1.24-.46-2,0-.34.03-.68.1-1.04ZM752.72,215.38l-1.65,9.3h-1.54l1.65-9.3h1.54ZM752.23,213.87c-.25,0-.46-.08-.62-.25-.16-.16-.25-.37-.25-.62,0-.34.12-.63.37-.87.25-.24.54-.36.87-.36.26,0,.47.08.63.24.16.16.24.37.24.63,0,.34-.12.63-.37.87-.25.24-.54.37-.87.37ZM739.47,220.01c.17-.96.51-1.8,1.03-2.52.51-.72,1.15-1.28,1.91-1.67.76-.4,1.58-.59,2.46-.59,1.14,0,2.03.28,2.67.83.64.55.99,1.32,1.06,2.31h-1.66c-.06-.57-.29-1.01-.69-1.34-.4-.33-.94-.49-1.62-.49-.88,0-1.65.3-2.3.91-.65.61-1.07,1.46-1.26,2.57-.06.37-.08.68-.08.93,0,.83.22,1.46.66,1.91.44.45,1.03.67,1.76.67.68,0,1.27-.16,1.77-.48.5-.32.89-.77,1.16-1.36h1.66c-.41.95-1.03,1.71-1.88,2.28-.85.57-1.83.86-2.95.86s-2.09-.33-2.77-1c-.68-.67-1.03-1.58-1.03-2.73,0-.35.03-.71.1-1.09ZM734.58,215.21c.96,0,1.73.26,2.31.77.58.51.87,1.26.87,2.25,0,.36-.03.68-.09.97l-.97,5.48h-1.53l.93-5.26c.05-.24.07-.49.07-.75,0-.69-.19-1.22-.57-1.58-.38-.36-.91-.54-1.59-.54-.81,0-1.51.25-2.08.76-.57.51-.94,1.25-1.11,2.22v-.03l-.92,5.18h-1.54l1.65-9.3h1.54l-.24,1.34c.38-.49.87-.86,1.44-1.12.58-.26,1.18-.39,1.82-.39ZM725.02,220.01c.05-.24.07-.49.07-.76,0-.83-.25-1.48-.74-1.96-.49-.48-1.12-.72-1.88-.72-.58,0-1.13.14-1.65.41-.53.27-.98.67-1.35,1.19-.37.52-.62,1.13-.75,1.83-.05.24-.07.5-.07.78,0,.84.24,1.5.73,1.98.49.48,1.11.72,1.87.72.58,0,1.13-.14,1.65-.42.53-.28.98-.68,1.36-1.2.38-.53.63-1.14.76-1.84ZM717.13,219.99c.17-.95.51-1.79,1.03-2.5.52-.72,1.14-1.28,1.88-1.67.74-.4,1.53-.59,2.37-.59s1.49.18,2.02.53c.53.35.9.79,1.1,1.32l.31-1.7h1.56l-1.65,9.3h-1.56l.32-1.73c-.41.54-.94.99-1.61,1.35-.67.36-1.4.53-2.21.53-.72,0-1.36-.16-1.92-.47-.55-.31-.99-.76-1.29-1.33-.31-.58-.46-1.24-.46-2,0-.34.03-.68.1-1.04ZM712.24,215.21c.96,0,1.73.26,2.31.77.58.51.87,1.26.87,2.25,0,.36-.03.68-.08.97l-.97,5.48h-1.53l.93-5.26c.05-.24.07-.49.07-.75,0-.69-.19-1.22-.57-1.58-.38-.36-.91-.54-1.59-.54-.81,0-1.51.25-2.08.76-.57.51-.94,1.25-1.11,2.22v-.03l-.92,5.18h-1.54l1.65-9.3h1.54l-.24,1.34c.38-.49.87-.86,1.44-1.12.58-.26,1.18-.39,1.82-.39ZM705.05,215.38l-1.65,9.3h-1.54l1.65-9.3h1.54ZM704.56,213.87c-.25,0-.46-.08-.62-.25-.16-.16-.25-.37-.25-.62,0-.34.12-.63.37-.87.25-.24.54-.36.87-.36.26,0,.47.08.63.24.16.16.24.37.24.63,0,.34-.12.63-.37.87-.25.24-.54.37-.87.37ZM702.08,212.85l-.22,1.2h-5.13l-.71,4.06h4.17l-.22,1.2h-4.18l-.95,5.36h-1.54l2.1-11.83h6.67ZM683.6,215.21c.96,0,1.73.26,2.31.77.58.51.87,1.26.87,2.25,0,.36-.03.68-.08.97l-.97,5.48h-1.53l.93-5.26c.05-.24.07-.49.07-.75,0-.69-.19-1.22-.57-1.58-.38-.36-.91-.54-1.59-.54-.81,0-1.51.25-2.08.76-.57.51-.94,1.25-1.11,2.22v-.03l-.92,5.18h-1.54l1.65-9.3h1.54l-.24,1.34c.38-.49.87-.86,1.44-1.12.58-.26,1.18-.39,1.82-.39ZM676.4,215.38l-1.65,9.3h-1.54l1.65-9.3h1.54ZM675.91,213.87c-.25,0-.46-.08-.62-.25-.16-.16-.25-.37-.25-.62,0-.34.12-.63.37-.87.25-.24.54-.36.87-.36.26,0,.47.08.63.24.16.16.24.37.24.63,0,.34-.12.63-.37.87-.25.24-.54.37-.87.37ZM664.71,217.14c.37-.61.84-1.09,1.41-1.43.57-.34,1.21-.51,1.94-.51l-.29,1.6h-.41c-.8,0-1.47.22-2.01.64-.54.43-.9,1.15-1.08,2.17l-.9,5.06h-1.54l1.65-9.3h1.54l-.31,1.76ZM659.12,219.43c.03-.23.05-.44.05-.63,0-.72-.23-1.28-.69-1.68-.46-.4-1.06-.59-1.79-.59-.79,0-1.51.26-2.16.77-.64.51-1.08,1.22-1.31,2.13h5.89ZM656.99,215.22c.78,0,1.46.15,2.03.45.57.3,1.01.72,1.31,1.26.3.54.45,1.15.45,1.84,0,.24-.03.53-.08.87-.05.29-.12.6-.22.92h-7.43c-.02.23-.03.39-.03.49,0,.78.23,1.39.7,1.82.47.44,1.08.65,1.84.65.67,0,1.25-.16,1.76-.47.5-.31.89-.73,1.15-1.25h1.66c-.41.89-1.03,1.62-1.88,2.18-.84.56-1.82.84-2.93.84-1.17,0-2.1-.34-2.81-1.01-.71-.67-1.06-1.59-1.06-2.76,0-.33.03-.68.1-1.05.17-.96.51-1.8,1.03-2.53.52-.72,1.16-1.28,1.93-1.67.76-.39,1.59-.59,2.49-.59ZM646.65,215.21c.96,0,1.73.26,2.31.77.58.51.87,1.26.87,2.25,0,.36-.03.68-.08.97l-.97,5.48h-1.53l.93-5.26c.05-.24.07-.49.07-.75,0-.69-.19-1.22-.57-1.58-.38-.36-.91-.54-1.59-.54-.81,0-1.51.25-2.08.76-.57.51-.94,1.25-1.11,2.22v-.03l-.92,5.18h-1.54l1.65-9.3h1.54l-.24,1.34c.38-.49.87-.86,1.44-1.12.58-.26,1.18-.39,1.82-.39ZM636.6,222.13c-.03.17-.05.32-.05.44,0,.28.09.49.26.61.18.12.46.19.86.19h1.14l-.24,1.31h-1.39c-.74,0-1.29-.14-1.65-.42-.37-.28-.55-.75-.55-1.39,0-.25.02-.49.07-.73l.97-5.48h-1.19l.22-1.27h1.2l.41-2.34h1.56l-.41,2.34h2.41l-.22,1.27h-2.43l-.97,5.48ZM630.82,217.14c.37-.61.84-1.09,1.41-1.43.57-.34,1.21-.51,1.94-.51l-.29,1.6h-.41c-.8,0-1.47.22-2.01.64-.54.43-.9,1.15-1.08,2.17l-.9,5.06h-1.54l1.65-9.3h1.54l-.31,1.76ZM624.59,220.01c.05-.24.07-.49.07-.76,0-.83-.25-1.48-.74-1.96-.49-.48-1.12-.72-1.88-.72-.58,0-1.13.14-1.65.41-.53.27-.98.67-1.35,1.19-.37.52-.62,1.13-.75,1.83-.05.24-.07.5-.07.78,0,.84.24,1.5.73,1.98.49.48,1.11.72,1.87.72.58,0,1.13-.14,1.65-.42.53-.28.98-.68,1.36-1.2.38-.53.63-1.14.76-1.84ZM616.7,219.99c.17-.95.51-1.79,1.03-2.5.51-.72,1.14-1.28,1.88-1.67.74-.4,1.53-.59,2.37-.59s1.49.18,2.02.53c.53.35.9.79,1.1,1.32l.31-1.7h1.56l-1.65,9.3h-1.56l.32-1.73c-.41.54-.94.99-1.61,1.35-.67.36-1.4.53-2.21.53-.72,0-1.36-.16-1.92-.47-.55-.31-.98-.76-1.29-1.33-.31-.58-.46-1.24-.46-2,0-.34.03-.68.1-1.04ZM611.55,218.52c.85,0,1.51-.19,1.99-.59.48-.39.78-.93.9-1.62.03-.2.05-.39.05-.56,0-1.12-.72-1.68-2.16-1.68h-2.27l-.78,4.45h2.27ZM616.02,216.31c-.17.98-.65,1.8-1.44,2.45-.79.65-1.87.98-3.24.98h-2.27l-.88,4.94h-1.54l2.1-11.83h3.82c1.18,0,2.06.25,2.65.76.59.5.88,1.17.88,2.01,0,.15-.02.38-.07.7ZM598.23,220.01c.05-.24.07-.49.07-.76,0-.83-.25-1.48-.74-1.96-.49-.48-1.12-.72-1.88-.72-.58,0-1.13.14-1.65.41-.53.27-.98.67-1.35,1.19-.37.52-.62,1.13-.75,1.83-.05.24-.07.5-.07.78,0,.84.24,1.5.73,1.98.49.48,1.11.72,1.87.72.58,0,1.13-.14,1.65-.42.53-.28.98-.68,1.36-1.2.38-.53.63-1.14.76-1.84ZM590.34,219.99c.17-.95.51-1.79,1.03-2.5.51-.72,1.15-1.28,1.89-1.67.75-.4,1.54-.59,2.38-.59.71,0,1.35.17,1.92.5.57.33.97.77,1.2,1.32l.87-4.92h1.56l-2.22,12.56h-1.56l.32-1.75c-.4.55-.93,1.01-1.6,1.37-.67.36-1.4.53-2.21.53-.72,0-1.36-.16-1.92-.47-.55-.31-.99-.76-1.3-1.33-.31-.58-.47-1.24-.47-2,0-.34.03-.68.1-1.04ZM587.4,219.43c.03-.23.05-.44.05-.63,0-.72-.23-1.28-.69-1.68-.46-.4-1.06-.59-1.79-.59-.79,0-1.51.26-2.16.77-.64.51-1.08,1.22-1.31,2.13h5.89ZM585.27,215.22c.78,0,1.46.15,2.03.45.57.3,1.01.72,1.31,1.26.3.54.45,1.15.45,1.84,0,.24-.03.53-.09.87-.05.29-.12.6-.22.92h-7.43c-.02.23-.03.39-.03.49,0,.78.23,1.39.7,1.82.47.44,1.08.65,1.84.65.67,0,1.25-.16,1.76-.47.5-.31.89-.73,1.15-1.25h1.66c-.41.89-1.03,1.62-1.88,2.18-.84.56-1.82.84-2.93.84-1.17,0-2.1-.34-2.81-1.01-.71-.67-1.06-1.59-1.06-2.76,0-.33.03-.68.1-1.05.17-.96.51-1.8,1.03-2.53.52-.72,1.16-1.28,1.93-1.67.76-.39,1.59-.59,2.49-.59ZM575.75,222.13c-.03.17-.05.32-.05.44,0,.28.09.49.26.61.18.12.46.19.86.19h1.14l-.24,1.31h-1.39c-.74,0-1.29-.14-1.65-.42-.37-.28-.55-.75-.55-1.39,0-.25.02-.49.07-.73l.97-5.48h-1.19l.22-1.27h1.2l.41-2.34h1.56l-.41,2.34h2.41l-.22,1.27h-2.43l-.97,5.48ZM567.82,224.83c-.97,0-1.77-.23-2.39-.7-.62-.46-.93-1.09-.93-1.87,0-.15,0-.25.02-.32h1.51c-.05.49.1.88.43,1.19.33.31.82.46,1.45.46s1.15-.12,1.54-.36c.39-.24.59-.59.59-1.03,0-.37-.16-.67-.48-.88-.32-.22-.8-.45-1.46-.7-.58-.22-1.05-.42-1.43-.61-.37-.19-.69-.46-.95-.81-.26-.34-.39-.78-.39-1.32s.15-.98.45-1.39c.3-.41.72-.72,1.26-.94.54-.22,1.15-.33,1.84-.33.95,0,1.73.24,2.34.71.61.48.92,1.1.92,1.87,0,.15,0,.26-.02.34h-1.48l.02-.2c0-.45-.17-.81-.52-1.08-.35-.27-.8-.4-1.37-.4s-1.01.12-1.37.37c-.36.25-.53.58-.53,1,0,.4.16.71.49.93.33.23.84.47,1.53.75.58.23,1.04.43,1.39.62.35.19.65.44.9.77.25.33.37.74.37,1.24,0,.54-.16,1.02-.48,1.43-.32.41-.77.72-1.33.93-.57.22-1.2.32-1.92.32ZM563.58,215.38l-1.65,9.3h-1.54l.24-1.36c-.37.48-.85.84-1.43,1.1-.58.26-1.18.39-1.8.39-.97,0-1.75-.26-2.33-.79-.58-.53-.87-1.28-.87-2.27,0-.25.03-.56.08-.93l.97-5.45h1.53l-.92,5.24c-.05.24-.07.49-.07.75,0,.69.19,1.21.57,1.57.38.36.91.53,1.59.53.81,0,1.51-.25,2.08-.76.57-.51.94-1.25,1.09-2.22v.05l.92-5.16h1.54ZM550.24,217.14c.37-.61.84-1.09,1.41-1.43.57-.34,1.21-.51,1.93-.51l-.29,1.6h-.41c-.8,0-1.47.22-2.01.64-.54.43-.9,1.15-1.08,2.17l-.9,5.06h-1.54l1.65-9.3h1.54l-.31,1.76ZM547.54,212.85l-.22,1.2h-3.22l-1.87,10.62h-1.54l1.87-10.62h-3.22l.22-1.2h7.99ZM529.67,217.14c.37-.61.84-1.09,1.41-1.43.57-.34,1.21-.51,1.94-.51l-.29,1.6h-.41c-.8,0-1.47.22-2.01.64-.54.43-.9,1.15-1.08,2.17l-.9,5.06h-1.54l1.65-9.3h1.54l-.31,1.76ZM525.82,215.38l-1.65,9.3h-1.54l.24-1.36c-.37.48-.85.84-1.43,1.1-.58.26-1.18.39-1.8.39-.97,0-1.75-.26-2.33-.79-.58-.53-.87-1.28-.87-2.27,0-.25.03-.56.08-.93l.97-5.45h1.53l-.92,5.24c-.05.24-.07.49-.07.75,0,.69.19,1.21.57,1.57s.91.53,1.59.53c.81,0,1.51-.25,2.08-.76.57-.51.94-1.25,1.09-2.22v.05l.92-5.16h1.54ZM509.34,223.52c.74,0,1.4-.2,1.99-.6.59-.4,1.05-.93,1.38-1.6.33-.66.5-1.37.5-2.13,0-.86-.25-1.52-.75-1.98-.5-.46-1.12-.69-1.87-.69s-1.39.2-1.97.6c-.58.4-1.02.94-1.34,1.6-.32.67-.48,1.39-.48,2.16,0,.84.24,1.48.71,1.94.48.46,1.08.69,1.82.69ZM509.15,224.83c-.78,0-1.47-.16-2.06-.48-.59-.32-1.05-.78-1.38-1.36-.33-.58-.49-1.26-.49-2.03,0-1.05.24-2.02.73-2.89.49-.88,1.16-1.57,2.01-2.08.85-.51,1.81-.76,2.86-.76.78,0,1.47.16,2.08.48.61.32,1.07.77,1.41,1.36.33.58.5,1.26.5,2.05,0,1.05-.25,2.01-.75,2.89-.5.87-1.18,1.56-2.04,2.07-.86.51-1.82.76-2.87.76ZM505.54,212.85l-5.16,7.37-.8,4.46h-1.55l.8-4.46-2.58-7.37h1.73l1.85,5.96,3.95-5.96h1.75Z"/>
      <g>
        <path class="cls-11" d="M341.12,189.84l-8.63-21.49v21.54h-4.78v-26.79h7.05l8.51,20.95,8.51-20.95h7.05v26.79h-4.78v-21.54l-8.65,21.54h-4.27l-.02-.04Z"/>
        <path class="cls-11" d="M379.83,163.14l11.79,26.75h-5.09l-.02-.04-2.62-6.31h-13.23l-2.68,6.35h-5.09l.04-.1,11.81-26.69h5.07l.02.04ZM377.3,167.69l-5.34,12.49h10.64l-5.3-12.49Z"/>
        <path class="cls-11" d="M400.45,189.89h-4.78v-26.79h5.43l.02.03,13.49,20v-20.03h4.78v26.79h-5l-.02-.03-13.92-20.62v20.65Z"/>
        <path class="cls-11" d="M440.39,163.14l11.79,26.75h-5.09l-.02-.04-2.62-6.31h-13.23l-2.68,6.35h-5.09l.04-.1,11.81-26.69h5.07l.02.04ZM437.86,167.69l-5.34,12.49h10.64l-5.3-12.49Z"/>
        <path class="cls-11" d="M457.38,186.39c-2.58-2.5-3.94-5.92-3.94-9.89s1.36-7.4,3.94-9.89c2.61-2.53,6.23-3.87,10.48-3.87,5.25,0,9.46,2.07,11.85,5.84l.04.06-3.57,1.81-.03-.05c-1.86-2.78-4.8-4.31-8.28-4.31-5.89,0-9.55,3.99-9.55,10.41s3.71,10.41,9.68,10.41c2.9,0,5.5-1.05,6.95-2.8v-5.34h-8.72v-3.35h13.5v9.01c-2.43,3.76-6.64,5.84-11.86,5.84-4.24,0-7.87-1.34-10.48-3.87Z"/>
        <path class="cls-11" d="M505.68,189.89h-20.57v-26.79h20.57v3.35h-15.79v8.37h14v3.35h-14v8.37h15.79v3.35Z"/>
        <path class="cls-11" d="M524.09,189.84l-8.63-21.49v21.54h-4.78v-26.79h7.05l8.51,20.95,8.51-20.95h7.05v26.79h-4.78v-21.54l-8.65,21.54h-4.27l-.02-.04Z"/>
        <path class="cls-11" d="M568.49,189.89h-20.57v-26.79h20.57v3.35h-15.79v8.37h14v3.35h-14v8.37h15.79v3.35Z"/>
        <path class="cls-11" d="M578.27,189.89h-4.78v-26.79h5.43l.02.03,13.49,20v-20.03h4.78v26.79h-5l-.02-.03-13.92-20.62v20.65Z"/>
        <path class="cls-11" d="M611.7,166.45h-10.43v-3.35h25.63v3.35h-10.43v23.4h-4.78v-23.4Z"/>
        <path class="cls-11" d="M665.71,182.77c0-2.75-3.54-3.5-7.63-4.37-5.06-1.07-10.8-2.29-10.8-7.82,0-4.77,4.36-7.85,11.09-7.85,5.62,0,9.94,2.06,11.85,5.66l.03.06-3.57,1.82-.03-.06c-1.45-2.66-4.35-4.13-8.15-4.13s-6.44,1.58-6.44,4.02c0,2.83,3.76,3.63,7.75,4.47,4.97,1.05,10.6,2.24,10.6,7.58s-5.87,8.1-11.69,8.1c-5.52,0-10.2-2.18-12.53-5.84l-.04-.07,3.61-1.81.03.05c1.72,2.66,5.14,4.31,8.92,4.31,3.37,0,7-1.29,7-4.13Z"/>
        <path class="cls-11" d="M696.02,189.89h-20.57v-26.79h20.57v3.35h-15.79v8.37h14v3.35h-14v8.37h15.79v3.35Z"/>
        <path class="cls-11" d="M725.82,189.89h-5.49l-.02-.03-7.9-11.69h-6.62v11.72h-4.78v-26.79h14.88c5.18,0,8.67,3.03,8.67,7.55,0,3.87-2.68,6.73-6.84,7.32l8.1,11.92ZM705.8,174.82h9.08c2.93,0,4.83-1.65,4.83-4.2s-1.89-4.16-4.83-4.16h-9.08v8.37Z"/>
        <path class="cls-11" d="M750.99,163.1h5.09l-.04.1-11.81,26.69h-5.07l-.02-.04-11.79-26.75h5.09l.02.04,9.26,22.15,9.27-22.19Z"/>
        <path class="cls-11" d="M760.09,189.89v-26.79h4.78v26.79h-4.78Z"/>
        <path class="cls-11" d="M773.83,186.39c-2.58-2.5-3.94-5.92-3.94-9.89s1.36-7.4,3.94-9.89c2.61-2.53,6.23-3.87,10.48-3.87,5.25,0,9.45,2.07,11.85,5.84l.04.06-3.57,1.81-.03-.05c-1.86-2.78-4.8-4.31-8.28-4.31-5.89,0-9.55,3.99-9.55,10.41s3.66,10.41,9.55,10.41c3.48,0,6.43-1.53,8.28-4.31l.03-.05,3.57,1.82-.04.06c-2.42,3.76-6.63,5.84-11.85,5.84-4.24,0-7.87-1.34-10.48-3.87Z"/>
        <path class="cls-11" d="M821.38,189.89h-20.57v-26.79h20.57v3.35h-15.79v8.37h14v3.35h-14v8.37h15.79v3.35Z"/>
        <path class="cls-11" d="M844.53,182.77c0-2.75-3.54-3.5-7.63-4.37-5.06-1.07-10.8-2.29-10.8-7.82,0-4.77,4.35-7.85,11.09-7.85,5.62,0,9.94,2.06,11.85,5.66l.03.06-3.57,1.82-.03-.06c-1.45-2.66-4.35-4.13-8.15-4.13s-6.44,1.58-6.44,4.02c0,2.83,3.76,3.63,7.75,4.47,4.97,1.05,10.6,2.24,10.6,7.58s-5.87,8.1-11.69,8.1c-5.52,0-10.2-2.18-12.53-5.84l-.04-.07,3.61-1.81.03.05c1.72,2.66,5.14,4.31,8.92,4.31,3.37,0,7-1.29,7-4.13Z"/>
      </g>
      <g>
        <path class="cls-11" d="M341.82,150.07h-16.66V56.69h71.7v11.68h-55.04v29.16h48.81v11.68h-48.81v40.84Z"/>
        <path class="cls-11" d="M486.5,118.01c0,10.28-3.95,18.79-11.43,24.61-7.32,5.7-17.87,8.72-30.51,8.72-25.41,0-41.19-12.77-41.19-33.33v-61.32h16.66v61.83c0,12.84,9.92,21.13,25.28,21.13s24.53-8.49,24.53-21.13v-61.83h16.66v61.32Z"/>
        <path class="cls-11" d="M527.93,68.38h-36.35v-11.68h89.35v11.68h-36.35v81.56h-16.66v-81.56Z"/>
        <path class="cls-11" d="M669.15,118.01c0,10.28-3.95,18.79-11.43,24.61-7.32,5.7-17.87,8.72-30.51,8.72-25.4,0-41.19-12.77-41.19-33.33v-61.32h16.66v61.83c0,12.84,9.92,21.13,25.27,21.13s24.53-8.49,24.53-21.13v-61.83h16.66v61.32Z"/>
        <path class="cls-11" d="M767.87,150.07h-19.13l-.07-.11-27.52-40.74h-23.07v40.84h-16.66V56.69h51.87c18.07,0,30.21,10.58,30.21,26.33,0,13.48-9.35,23.45-23.85,25.51l28.22,41.54ZM698.07,97.54h31.66c10.22,0,16.82-5.75,16.82-14.64s-6.6-14.52-16.82-14.52h-31.66v29.16Z"/>
        <path class="cls-11" d="M847.43,150.07h-71.7V56.69h71.7v11.68h-55.04v29.16h48.81v11.68h-48.81v29.16h55.04v11.68Z"/>
      </g>
    </g>
  </g>
</svg>